<svg width="30" height="36" viewBox="0 0 30 36" fill="none" xmlns="http://www.w3.org/2000/svg">
<path d="M21.0078 23.4453H29.2109C29.1016 25.8203 28.4609 27.9141 27.2891 29.7266C26.1172 31.5391 24.4922 32.9531 22.4141 33.9688C20.3516 34.9688 17.9141 35.4688 15.1016 35.4688C12.8203 35.4688 10.7812 35.0859 8.98438 34.3203C7.20312 33.5547 5.6875 32.4531 4.4375 31.0156C3.20312 29.5781 2.25781 27.8359 1.60156 25.7891C0.960938 23.7422 0.640625 21.4375 0.640625 18.875V17.0234C0.640625 14.4609 0.976562 12.1562 1.64844 10.1094C2.33594 8.04688 3.30469 6.29687 4.55469 4.85938C5.82031 3.40625 7.33594 2.29688 9.10156 1.53125C10.8672 0.765625 12.8281 0.382812 14.9844 0.382812C17.9531 0.382812 20.4609 0.914063 22.5078 1.97656C24.5547 3.03906 26.1406 4.5 27.2656 6.35938C28.3906 8.20312 29.0547 10.3047 29.2578 12.6641H21.0547C21.0234 11.3828 20.8047 10.3125 20.3984 9.45312C19.9922 8.57812 19.3516 7.92188 18.4766 7.48438C17.6016 7.04688 16.4375 6.82812 14.9844 6.82812C13.9688 6.82812 13.0859 7.01562 12.3359 7.39062C11.5859 7.76562 10.9609 8.35938 10.4609 9.17188C9.96094 9.98438 9.58594 11.0391 9.33594 12.3359C9.10156 13.6172 8.98438 15.1641 8.98438 16.9766V18.875C8.98438 20.6875 9.09375 22.2344 9.3125 23.5156C9.53125 24.7969 9.88281 25.8438 10.3672 26.6562C10.8516 27.4688 11.4766 28.0703 12.2422 28.4609C13.0234 28.8359 13.9766 29.0234 15.1016 29.0234C16.3516 29.0234 17.4062 28.8281 18.2656 28.4375C19.125 28.0312 19.7891 27.4219 20.2578 26.6094C20.7266 25.7812 20.9766 24.7266 21.0078 23.4453Z" fill="url(#paint0_linear_151_2)"/>
<defs>
<linearGradient id="paint0_linear_151_2" x1="-1" y1="19" x2="31" y2="19" gradientUnits="userSpaceOnUse">
<stop stop-color="#6728EC"/>
<stop offset="1" stop-color="#8AB3F0"/>
</linearGradient>
</defs>
</svg>
